<svg width="32" height="32" viewBox="0 0 32 32" fill="none" xmlns="http://www.w3.org/2000/svg">
<rect width="32" height="32" rx="6" fill="#1026E9"/>
<path d="M24.9776 11.9501C24.9753 11.5993 24.8808 11.2554 24.7036 10.9527C24.5264 10.6501 24.2727 10.3993 23.968 10.2256L16.9459 6.26461C16.6409 6.09077 16.2955 6.00028 15.9444 6.00223C15.5934 6.00418 15.249 6.09851 14.9459 6.27573L7.96828 10.3146C7.66553 10.4916 7.41465 10.7452 7.24082 11.0498C7.06699 11.3544 6.97633 11.6994 6.97792 12.0501L7.02238 20.05C7.02469 20.4007 7.11918 20.7446 7.29639 21.0473C7.47359 21.35 7.72727 21.6007 8.03198 21.7744L15.0541 25.7354C15.3591 25.9093 15.7045 25.9998 16.0556 25.9978C16.4066 25.9959 16.751 25.9015 17.0541 25.7243L24.0317 21.6855C24.3345 21.5084 24.5854 21.2549 24.7592 20.9503C24.933 20.6456 25.0237 20.3007 25.0221 19.9499L24.9776 11.9501Z" stroke="white" stroke-width="2" stroke-linecap="round" stroke-linejoin="round"/>
<path d="M7.29999 11L16 16L24.7 11" stroke="white" stroke-width="2" stroke-linecap="round" stroke-linejoin="round"/>
<path d="M16 26V16" stroke="white" stroke-width="2" stroke-linecap="round" stroke-linejoin="round"/>
</svg>
