<svg width="16" height="21" viewBox="0 0 16 21" fill="none" xmlns="http://www.w3.org/2000/svg">
<rect width="16" height="16" rx="8" fill="#1026E9"/>
<path d="M8.79241 19.9706C8.3921 20.4906 7.6079 20.4906 7.20759 19.9706L2.31117 13.61C1.80497 12.9524 2.27374 12 3.10358 12L12.8964 12C13.7263 12 14.195 12.9524 13.6888 13.61L8.79241 19.9706Z" fill="#1026E9"/>
<g clip-path="url(#clip0_1015_17)">
<path d="M11.7407 6.31253C11.7397 6.16639 11.7003 6.02308 11.6265 5.89697C11.5527 5.77086 11.447 5.66638 11.32 5.59402L8.39412 3.94359C8.26703 3.87115 8.12312 3.83345 7.97684 3.83426C7.83056 3.83507 7.68707 3.87438 7.5608 3.94822L4.65344 5.63107C4.52729 5.70484 4.42276 5.81049 4.35033 5.93741C4.2779 6.06434 4.24013 6.20808 4.24079 6.35421L4.25931 9.68749C4.26028 9.83362 4.29965 9.97693 4.37348 10.103C4.44732 10.2292 4.55302 10.3336 4.67998 10.406L7.60586 12.0564C7.73295 12.1289 7.87687 12.1666 8.02315 12.1658C8.16942 12.1649 8.31291 12.1256 8.43918 12.0518L11.3465 10.3689C11.4727 10.2952 11.5772 10.1895 11.6497 10.0626C11.7221 9.93568 11.7599 9.79194 11.7592 9.64581L11.7407 6.31253Z" stroke="white" stroke-linecap="round" stroke-linejoin="round"/>
<path d="M4.375 5.91666L8 7.99999L11.625 5.91666" stroke="white" stroke-linecap="round" stroke-linejoin="round"/>
<path d="M8 12.1667V8" stroke="white" stroke-linecap="round" stroke-linejoin="round"/>
</g>
<defs>
<clipPath id="clip0_1015_17">
<rect width="10" height="10" fill="white" transform="translate(3 3)"/>
</clipPath>
</defs>
</svg>
